HIERARCHY
ROOT Hips
{
	OFFSET 0.00000 0.00000 0.00000
	CHANNELS 6 Xposition Yposition Zposition Zrotation Yrotation Xrotation 
	JOINT LHipJoint
	{
		OFFSET 0 0 0
		CHANNELS 3 Zrotation Yrotation Xrotation
		JOINT LeftHip
		{
			OFFSET 1.44361 -1.63093 0.70831
			CHANNELS 3 Zrotation Yrotation Xrotation
			JOINT LeftKnee
			{
				OFFSET 2.20103 -6.04728 0.00000
				CHANNELS 3 Zrotation Yrotation Xrotation
				JOINT LeftAnkle
				{
					OFFSET 2.54154 -6.98283 0.00000
					CHANNELS 3 Zrotation Yrotation Xrotation
					JOINT LeftToe
					{
						OFFSET 0.05971 -0.16406 1.77582
						CHANNELS 3 Zrotation Yrotation Xrotation
						End Site
						{
							OFFSET 0.00000 -0.00000 0.90832
						}
					}
				}
			}
		}
	}
	JOINT RHipJoint
	{
		OFFSET 0 0 0
		CHANNELS 3 Zrotation Yrotation Xrotation
		JOINT RightHip
		{
			OFFSET -1.65838 -1.63093 0.70830
			CHANNELS 3 Zrotation Yrotation Xrotation
			JOINT RightKnee
			{
				OFFSET -2.26926 -6.23475 0.00000
				CHANNELS 3 Zrotation Yrotation Xrotation
				JOINT RightAnkle
				{
					OFFSET -2.34808 -6.45129 0.00000
					CHANNELS 3 Zrotation Yrotation Xrotation
					JOINT RightToe
					{
						OFFSET -0.18633 -0.51195 1.68539
						CHANNELS 3 Zrotation Yrotation Xrotation
						End Site
						{
							OFFSET -0.00000 -0.00000 0.88927
						}
					}
				}
			}
		}
	}
	JOINT lowerback
	{
		OFFSET 0 0 0
		CHANNELS 3 Zrotation Yrotation Xrotation
		JOINT Chest
		{
			OFFSET -0.10393 2.01691 0.06920
			CHANNELS 3 Zrotation Yrotation Xrotation
			JOINT Chest2
			{
				OFFSET 0.04092 2.01302 -0.05283
				CHANNELS 3 Zrotation Yrotation Xrotation
				JOINT lowerneck
				{
					OFFSET 0 0 0
					CHANNELS 3 Zrotation Yrotation Xrotation
					JOINT Neck
					{
						OFFSET -0.02870 1.58978 -0.03113
						CHANNELS 3 Zrotation Yrotation Xrotation
						JOINT Head
						{
							OFFSET 0.11532 1.54326 -0.29195
							CHANNELS 3 Zrotation Yrotation Xrotation
							End Site
							{
								OFFSET 0.04056 1.59999 -0.09535
							}
						}
					}
				}
				JOINT LeftCollar
				{
					OFFSET 0 0 0
					CHANNELS 3 Zrotation Yrotation Xrotation
					JOINT LeftShoulder
					{
						OFFSET 3.30641 1.15764 0.01104
CHANNELS 3 Zrotation Xrotation Yrotation
						JOINT LeftElbow
						{
OFFSET 0 -4.632080 0.000000
CHANNELS 3 Zrotation Xrotation Yrotation
							JOINT LeftWrist
							{
OFFSET 0 -3.419240 -0.000000
CHANNELS 3 Zrotation Xrotation Yrotation
								JOINT lhand
								{
									OFFSET 0 0 0
CHANNELS 3 Zrotation Xrotation Yrotation
									JOINT LFingers
									{
OFFSET 0 -0.625370 -0.000000
CHANNELS 3 Zrotation Xrotation Yrotation
										End Site
										{
OFFSET 0 -0.504190 -0.000000
										}
									}
								}
								JOINT LThumb
								{
OFFSET 0 0.000000 0.000000
CHANNELS 3 Zrotation Xrotation Yrotation
									End Site
									{
OFFSET 0 -0.511890 0.511890
									}
								}
							}
						}
					}
				}
				JOINT RightCollar
				{
					OFFSET 0 0 0
					CHANNELS 3 Zrotation Yrotation Xrotation
					JOINT RightShoulder
					{
						OFFSET -3.78081 1.02180 -0.16609
CHANNELS 3 Zrotation Xrotation Yrotation
						JOINT RightElbow
						{
OFFSET 0 -4.406400 -0.000000
CHANNELS 3 Zrotation Xrotation Yrotation
							JOINT RightWrist
							{
OFFSET 0 -3.446750 0.000000
CHANNELS 3 Zrotation Xrotation Yrotation
								JOINT rhand
								{
									OFFSET 0 0 0
CHANNELS 3 Zrotation Xrotation Yrotation
									JOINT RFingers
									{
OFFSET 0 -0.513670 -0.000000
CHANNELS 3 Zrotation Xrotation Yrotation
										End Site
										{
OFFSET 0 -0.414140 -0.000000
										}
									}
								}
								JOINT RThumb
								{
OFFSET 0 0.000000 0.000000
CHANNELS 3 Zrotation Xrotation Yrotation
									End Site
									{
OFFSET 0 -0.420460 0.420460
									}
								}
							}
						}
					}
				}
			}
		}
	}
}
MOTION
Frames: 12
Frame Time: 0.008333333333333333
6.737400 16.601900 35.021800 179.052000 0.701500 -170.521000 0.000000 0.000000 0.000000 -19.613200 -12.506700 -5.806900 0.558400 4.786700 13.301100 0.462700 -1.553900 -12.404600 8.950600 -16.775900 -55.919300 0.000000 0.000000 0.000000 19.899400 4.021900 -3.866000 -0.132400 -2.345600 6.461800 -0.468600 1.370400 -12.527600 -1.461800 7.641400 -21.630100 -6.107600 1.968400 -8.628600 0.873200 3.254300 1.898100 4.805900 1.343700 6.461900 -4.418500 0.069200 -5.578800 8.946000 -6.754700 33.721600 3.080300 -4.047600 12.503100 0.000000 -0.000000 0.000000 -0.917400 -7.854600 -14.608800 8.433200 -14.252500 1.056200 34.080000 9.391900 18.134700 0.000000 0.000000 0.000000 -7.125000 0.000000 0.000000 3.870500 8.444400 3.267800 0.000000 -0.000000 0.000000 4.530800 0.620200 2.158000 -12.111500 -19.971700 -2.140200 -25.310300 40.405900 43.183800 0.000000 0.000000 0.000000 7.125000 0.000000 -0.000000 22.782400 75.067300 -16.332600
6.737549 16.599741 35.026342 179.026684 0.685715 -170.409314 0.000000 0.000000 0.000000 -19.604191 -12.555619 -5.957900 0.559517 4.791391 13.314502 0.534700 -1.957757 -13.267859 9.270841 -16.977382 -57.020004 0.000000 0.000000 0.000000 19.861352 3.807165 -4.158543 -0.133145 -2.352078 6.479744 -0.449539 1.293337 -12.280327 -1.636030 8.058436 -22.894089 -6.170665 1.966911 -8.720034 0.877444 3.263756 1.853723 4.850574 1.346753 6.462272 -4.505615 0.041130 -5.437927 9.075184 -6.815085 33.610361 3.139121 -4.076489 12.439439 0.000000 0.000000 0.000000 -0.999824 -5.853333 -22.155284 7.546114 -12.811004 0.852336 39.003497 5.931417 30.376171 0.000000 0.000000 0.000000 -7.125000 0.000000 0.000000 4.057314 -6.923167 4.490689 0.000000 0.000000 0.000000 4.537054 0.645292 2.122558 -12.167790 -20.055837 -2.159484 -24.469750 39.880826 43.144784 0.000000 0.000000 0.000000 7.125000 0.000000 0.000000 23.838728 74.720701 -16.934439
6.737013 16.599000 35.030101 178.997945 0.629086 -170.349477 0.000000 0.000000 0.000000 -19.628150 -12.649392 -6.049223 0.563862 4.809533 13.366107 0.585521 -1.776299 -13.955123 9.679717 -17.222007 -58.407203 0.000000 0.000000 0.000000 19.830250 3.617180 -4.340832 -0.133742 -2.357137 6.493726 -0.435614 1.184038 -12.111122 -1.805956 8.445096 -24.077173 -6.203648 1.959503 -8.765194 0.870046 3.260396 1.833217 4.862672 1.344278 6.465433 -4.640227 0.012130 -5.327331 9.269571 -6.896210 33.515165 3.229004 -4.113548 12.395295 0.000000 0.000000 0.000000 -1.113212 -5.075916 -25.167214 7.171509 -12.201110 0.767530 33.993415 13.153155 27.315412 0.000000 0.000000 0.000000 -7.125000 0.000000 0.000000 1.677125 -2.290426 2.144260 0.000000 0.000000 0.000000 4.564098 0.626165 2.075573 -12.177806 -20.070808 -2.162921 -24.176949 39.535074 42.823677 0.000000 0.000000 0.000000 7.125000 0.000000 0.000000 23.555277 74.338002 -16.545215
6.736190 16.599164 35.033756 178.956900 0.544328 -170.333311 0.000000 0.000000 0.000000 -19.697933 -12.848344 -6.103565 0.576998 4.863752 13.520445 0.629114 -1.227309 -14.615577 10.135927 -17.483013 -59.938301 0.000000 0.000000 0.000000 19.793310 3.423970 -4.448370 -0.133890 -2.358300 6.496898 -0.423740 1.046034 -11.976045 -1.987190 8.834942 -25.283453 -6.228892 1.951272 -8.768077 0.851194 3.253687 1.831814 4.856191 1.340413 6.466286 -4.770261 -0.020721 -5.257088 9.468884 -6.990666 33.447724 3.318161 -4.154498 12.373192 0.000000 0.000000 0.000000 -1.231643 -4.975952 -25.723040 7.098310 -12.080951 0.752047 27.069133 21.868606 19.836756 0.000000 0.000000 0.000000 -7.125000 0.000000 0.000000 -0.841710 7.927507 -0.717382 0.000000 0.000000 0.000000 4.614968 0.577053 1.962165 -12.158377 -20.041762 -2.156281 -24.230520 39.343963 42.294076 0.000000 0.000000 0.000000 7.125000 0.000000 0.000000 22.396924 73.902049 -15.507938
6.735520 16.599685 35.038074 178.892866 0.444704 -170.353414 0.000000 0.000000 0.000000 -19.830243 -13.225992 -6.145187 0.605664 4.981469 13.855727 0.681085 -0.543045 -15.418302 10.594435 -17.730584 -61.456935 0.000000 0.000000 0.000000 19.735680 3.195461 -4.518360 -0.133220 -2.352567 6.480964 -0.410486 0.882079 -11.826460 -2.198054 9.266423 -26.632770 -6.271556 1.947995 -8.731370 0.820592 3.254283 1.844918 4.846289 1.339817 6.458915 -4.836081 -0.060928 -5.240484 9.604546 -7.090587 33.422631 3.370281 -4.194630 12.376989 0.000000 0.000000 0.000000 -1.325757 -4.959869 -26.086020 7.098980 -12.082067 0.752196 27.298611 21.656774 20.166975 0.000000 0.000000 0.000000 -7.125000 0.000000 0.000000 -0.733747 7.525809 -0.631309 0.000000 0.000000 0.000000 4.694191 0.512871 1.716753 -12.127403 -19.995450 -2.145708 -24.415994 39.286184 41.630735 0.000000 0.000000 0.000000 7.125000 0.000000 0.000000 20.855431 73.390899 -14.185351
6.734560 16.599989 35.042465 178.834616 0.399295 -170.377132 0.000000 0.000000 0.000000 -19.855063 -13.002501 -6.056113 0.583657 4.891433 13.599194 0.778453 -0.763888 -16.419167 10.941333 -17.904783 -62.589122 0.000000 0.000000 0.000000 19.675231 3.012709 -4.598687 -0.133706 -2.356954 6.493078 -0.399691 0.810145 -11.685550 -2.416001 9.679326 -27.947751 -6.317040 1.967345 -8.688807 0.789773 3.284516 1.844794 4.840723 1.354908 6.430147 -4.628078 -0.077497 -5.449344 9.446649 -7.115042 33.573486 3.267345 -4.188427 12.475700 0.000000 0.000000 0.000000 -1.391679 -4.837885 -27.026646 7.249213 -12.328599 0.784079 26.828928 21.565229 19.379345 0.000000 0.000000 0.000000 -7.125000 0.000000 0.000000 -0.945076 8.467712 -0.794121 0.000000 0.000000 0.000000 4.767052 0.513313 1.347441 -12.152379 -20.032774 -2.154219 -24.834521 39.859400 41.195315 0.000000 0.000000 0.000000 7.125000 0.000000 0.000000 19.500874 73.151838 -13.147792
6.731769 16.600521 35.044708 178.815805 0.401090 -170.407035 0.000000 0.000000 0.000000 -19.880863 -12.965749 -5.911417 0.574012 4.851907 13.486629 0.820669 -0.847459 -16.853640 11.060833 -17.964733 -62.979088 0.000000 0.000000 0.000000 19.658403 2.691891 -4.756687 -0.134040 -2.359775 6.500985 -0.380835 0.759298 -11.412519 -2.647390 10.095738 -29.292085 -6.296651 2.004389 -8.671731 0.762267 3.332467 1.846890 4.805278 1.380286 6.419200 -4.296488 -0.071620 -5.764959 9.157047 -7.084829 33.797169 3.096976 -4.151336 12.614422 0.000000 0.000000 0.000000 -1.459980 -4.727026 -27.307147 7.246640 -12.324422 0.783492 27.766767 21.566811 19.567930 0.000000 0.000000 0.000000 -7.125000 0.000000 0.000000 -0.369417 8.085013 -0.302782 0.000000 0.000000 0.000000 4.819436 0.540657 1.096974 -12.182774 -20.078171 -2.164658 -24.442202 39.746838 41.077169 0.000000 0.000000 0.000000 7.125000 0.000000 0.000000 19.815194 72.909072 -13.255712
6.727516 16.601021 35.044700 178.843806 0.452570 -170.435452 0.000000 0.000000 0.000000 -19.887785 -13.042223 -5.739462 0.571283 4.840555 13.454367 0.829232 -0.808644 -16.954606 11.040190 -17.954672 -62.912093 0.000000 0.000000 0.000000 19.684300 2.394586 -4.909560 -0.134582 -2.364435 6.514020 -0.364981 0.776263 -11.165680 -2.829949 10.414488 -30.329682 -6.215936 2.054171 -8.694146 0.746247 3.392473 1.850645 4.751829 1.412501 6.433533 -3.951755 -0.055889 -6.080253 8.841848 -7.035000 34.027123 2.916506 -4.106893 12.752828 0.000000 0.000000 0.000000 -1.532844 -4.615806 -27.288156 7.172079 -12.202099 0.767628 29.393303 21.652184 20.123728 0.000000 0.000000 0.000000 -7.125000 0.000000 0.000000 0.602806 7.169700 0.523940 0.000000 0.000000 0.000000 4.845311 0.585451 0.974952 -12.203450 -20.109035 -2.171767 -23.666004 39.103938 40.997342 0.000000 0.000000 0.000000 7.125000 0.000000 0.000000 20.725116 72.565830 -13.727987
6.722304 16.601096 35.042243 178.930922 0.560980 -170.451088 0.000000 0.000000 0.000000 -19.841026 -13.098140 -5.576028 0.565252 4.815463 13.382963 0.837423 -0.707308 -17.070163 11.001174 -17.935611 -62.785292 0.000000 0.000000 0.000000 19.752428 2.363984 -4.934355 -0.135922 -2.376497 6.547451 -0.368779 0.936272 -11.181762 -2.870156 10.481872 -30.551565 -6.081913 2.110610 -8.777539 0.754140 3.457698 1.854666 4.697847 1.447273 6.483866 -3.745806 -0.047773 -6.245847 8.645355 -7.013928 34.172240 2.804150 -4.087907 12.835104 0.000000 0.000000 0.000000 -1.612364 -4.482378 -27.525749 7.150933 -12.167327 0.763160 30.622446 21.814725 20.098189 0.000000 0.000000 0.000000 -7.125000 0.000000 0.000000 1.384907 6.949157 1.207832 0.000000 0.000000 0.000000 4.834812 0.636901 0.993045 -12.194143 -20.095112 -2.168491 -23.143462 38.178358 40.551491 0.000000 0.000000 0.000000 7.125000 0.000000 0.000000 20.654232 71.987891 -13.422414
6.718705 16.601661 35.042731 178.992795 0.634893 -170.412033 0.000000 0.000000 0.000000 -19.779472 -13.066131 -5.535649 0.551508 4.757135 13.217251 0.829696 -0.660872 -17.003488 10.939160 -17.905121 -62.583887 0.000000 0.000000 0.000000 19.797699 2.383445 -5.016364 -0.138384 -2.397744 6.606195 -0.368720 1.027286 -11.156546 -2.874954 10.489867 -30.578033 -6.027472 2.114251 -8.875235 0.793375 3.459607 1.841438 4.714192 1.447898 6.525785 -3.788702 -0.033978 -6.264475 8.650728 -7.010526 34.232026 2.814218 -4.094863 12.865913 0.000000 0.000000 0.000000 -1.737601 -4.401889 -27.361363 7.123967 -12.123020 0.757501 31.213736 22.221342 20.180980 0.000000 0.000000 0.000000 -7.125000 0.000000 0.000000 1.746376 6.731909 1.530902 0.000000 0.000000 0.000000 4.743609 0.690174 1.258861 -12.162749 -20.048233 -2.157712 -26.772890 38.795278 37.328872 0.000000 0.000000 0.000000 7.125000 0.000000 0.000000 11.579783 70.121626 -7.165181
6.716275 16.602569 35.046700 178.966631 0.667533 -170.382073 0.000000 0.000000 0.000000 -19.810118 -13.042586 -5.506275 0.537643 4.697865 13.048910 0.816929 -0.646497 -16.874449 10.869438 -17.870536 -62.356868 0.000000 0.000000 0.000000 19.742376 2.401147 -5.100980 -0.141228 -2.421834 6.673013 -0.368422 1.080375 -11.138357 -2.837889 10.427591 -30.373142 -6.067731 2.098933 -8.914265 0.810078 3.445071 1.834675 4.754683 1.438385 6.539547 -3.877535 -0.020945 -6.271643 8.712682 -7.010804 34.260943 2.854419 -4.102223 12.884979 0.000000 0.000000 0.000000 -1.839280 -4.374823 -27.077595 7.098825 -12.081732 0.752214 31.542758 22.702887 20.259602 0.000000 0.000000 0.000000 -7.125000 0.000000 0.000000 1.942423 6.573526 1.708388 0.000000 0.000000 0.000000 4.652179 0.722877 1.586994 -12.141175 -20.016030 -2.150347 -24.347446 37.063233 40.558187 0.000000 0.000000 0.000000 7.125000 0.000000 0.000000 21.204821 71.958136 -14.932283
6.714619 16.603495 35.052937 178.874691 0.677305 -170.366761 0.000000 0.000000 0.000000 -19.914285 -13.025149 -5.474034 0.524702 4.642063 12.890486 0.803763 -0.677430 -16.727207 10.798870 -17.835240 -62.126623 0.000000 0.000000 0.000000 19.612438 2.423985 -5.174957 -0.143995 -2.445068 6.737533 -0.368333 1.102072 -11.131732 -2.773486 10.318824 -30.015718 -6.168650 2.079776 -8.907072 0.800537 3.431483 1.836426 4.799268 1.428214 6.534306 -3.971918 -0.014522 -6.275134 8.802839 -7.019856 34.261193 2.905573 -4.109479 12.893130 0.000000 0.000000 0.000000 -1.899973 -4.391614 -26.816783 7.083998 -12.057406 0.749090 31.679145 23.128902 20.313518 0.000000 0.000000 0.000000 -7.125000 0.000000 0.000000 2.020361 6.483396 1.780427 0.000000 0.000000 0.000000 4.580657 0.727384 1.868822 -12.128340 -19.996860 -2.145982 -19.901003 34.548823 45.004393 0.000000 0.000000 0.000000 7.125000 0.000000 0.000000 34.668509 74.372821 -25.031384
